<mxfile host="app.diagrams.net" modified="2021-03-13T11:24:26.515Z" agent="5.0 (Macintosh; Intel Mac OS X 10_15_7) AppleWebKit/605.1.15 (KHTML, like Gecko) Version/14.0.3 Safari/605.1.15" etag="3e3fRHkx9jIzpwhd5yo7" version="14.4.8" type="github" pages="3">
  <diagram name="Page-1" id="efa7a0a1-bf9b-a30e-e6df-94a7791c09e9">
    <mxGraphModel dx="990" dy="610" grid="1" gridSize="10" guides="1" tooltips="1" connect="1" arrows="1" fold="1" page="1" pageScale="1" pageWidth="826" pageHeight="1169" background="#ffffff" math="0" shadow="0">
      <root>
        <mxCell id="0" />
        <mxCell id="1" parent="0" />
        <mxCell id="19" value="&lt;p style=&quot;margin: 0px ; margin-top: 4px ; text-align: center ; text-decoration: underline&quot;&gt;&lt;strong&gt;WEB&lt;/strong&gt;&lt;/p&gt;&lt;hr&gt;&lt;p style=&quot;margin: 0px 0px 0px 8px ; font-size: 11px&quot;&gt;&lt;font style=&quot;font-size: 11px&quot;&gt;WEB Interfase&lt;br&gt;&lt;font style=&quot;font-size: 11px&quot;&gt;HTTP Tamplates,&amp;nbsp;&lt;/font&gt;&lt;/font&gt;&lt;/p&gt;&lt;p style=&quot;margin: 0px 0px 0px 8px ; font-size: 11px&quot;&gt;&lt;font style=&quot;font-size: 11px&quot;&gt;CSS,&amp;nbsp;&lt;/font&gt;&lt;/p&gt;&lt;p style=&quot;margin: 0px 0px 0px 8px ; font-size: 11px&quot;&gt;&lt;font style=&quot;font-size: 11px&quot;&gt;Images&lt;/font&gt;&lt;/p&gt;&lt;p style=&quot;margin: 0px 0px 0px 8px ; font-size: 11px&quot;&gt;&lt;br&gt;&lt;/p&gt;" style="verticalAlign=top;align=left;overflow=fill;fontSize=12;fontFamily=Helvetica;html=1;strokeColor=#003366;shadow=1;fillColor=#D4E1F5;fontColor=#003366" parent="1" vertex="1">
          <mxGeometry x="253" y="40" width="160" height="90" as="geometry" />
        </mxCell>
        <mxCell id="20" value="&lt;p style=&quot;margin: 4px 0px 0px ; text-align: center ; text-decoration: underline ; font-size: 11px&quot;&gt;&lt;b&gt;&lt;font style=&quot;font-size: 11px&quot;&gt;Backend on Flask&lt;/font&gt;&lt;/b&gt;&lt;/p&gt;&lt;hr style=&quot;font-size: 11px&quot;&gt;&lt;p style=&quot;margin: 0px 0px 0px 8px ; font-size: 11px&quot;&gt;&lt;font style=&quot;font-size: 11px&quot;&gt;Авторизация&lt;/font&gt;&lt;/p&gt;&lt;p style=&quot;margin: 0px 0px 0px 8px ; font-size: 11px&quot;&gt;&lt;font style=&quot;font-size: 11px&quot;&gt;Конфигурация пробника&lt;/font&gt;&lt;/p&gt;&lt;p style=&quot;margin: 0px 0px 0px 8px ; font-size: 11px&quot;&gt;&lt;/p&gt;&lt;ul style=&quot;font-size: 11px&quot;&gt;&lt;li&gt;&lt;font style=&quot;font-size: 11px&quot;&gt;Название, адрес&lt;br&gt;&lt;/font&gt;&lt;/li&gt;&lt;li&gt;&lt;font style=&quot;font-size: 11px&quot;&gt;Параметры пользователя&lt;br&gt;&lt;/font&gt;&lt;/li&gt;&lt;li&gt;&lt;font style=&quot;font-size: 11px&quot;&gt;Интерфейсы&lt;br&gt;&lt;/font&gt;&lt;/li&gt;&lt;li&gt;&lt;font style=&quot;font-size: 11px&quot;&gt;NTP сервер&lt;br&gt;&lt;/font&gt;&lt;/li&gt;&lt;/ul&gt;&lt;p style=&quot;font-size: 11px&quot;&gt;&lt;/p&gt;&lt;p style=&quot;margin: 0px 0px 0px 8px ; font-size: 11px&quot;&gt;&lt;font style=&quot;font-size: 11px&quot;&gt;Конфигурация тестов&lt;/font&gt;&lt;/p&gt;&lt;p style=&quot;margin: 0px 0px 0px 8px ; font-size: 11px&quot;&gt;&lt;/p&gt;&lt;ul style=&quot;font-size: 11px&quot;&gt;&lt;li&gt;&lt;font style=&quot;font-size: 11px&quot;&gt;Параметры теста&lt;br&gt;&lt;/font&gt;&lt;/li&gt;&lt;li&gt;&lt;font style=&quot;font-size: 11px&quot;&gt;Периодичность исполнения&lt;/font&gt;&lt;/li&gt;&lt;/ul&gt;&lt;p style=&quot;margin: 0px 0px 0px 8px ; font-size: 11px&quot;&gt;&lt;font style=&quot;font-size: 11px&quot;&gt;Параметры каналов&lt;/font&gt;&lt;/p&gt;&lt;p style=&quot;margin: 0px 0px 0px 8px ; font-size: 11px&quot;&gt;&lt;/p&gt;&lt;ul style=&quot;font-size: 11px&quot;&gt;&lt;li&gt;&lt;font style=&quot;font-size: 11px&quot;&gt;Вниз/вверх&lt;br&gt;&lt;/font&gt;&lt;/li&gt;&lt;li&gt;&lt;font style=&quot;font-size: 11px&quot;&gt;Ширина&lt;br&gt;&lt;/font&gt;&lt;/li&gt;&lt;li&gt;&lt;font style=&quot;font-size: 11px&quot;&gt;Привязанный тест&lt;/font&gt;&lt;/li&gt;&lt;/ul&gt;&lt;font style=&quot;font-size: 11px&quot;&gt;&amp;nbsp; &amp;nbsp;Получение/изменение/сохранение конфигураций&lt;br&gt;&amp;nbsp; &amp;nbsp;Получение результатов выполнения тестов&lt;br&gt;&amp;nbsp; &amp;nbsp;Процедура первичной инициализации&lt;br&gt;&amp;nbsp; &amp;nbsp;Самодиагностика&lt;br&gt;&amp;nbsp; &amp;nbsp;&lt;br&gt;&lt;br&gt;&lt;br&gt;&lt;/font&gt;&lt;br&gt;&lt;p&gt;&lt;/p&gt;" style="verticalAlign=top;align=left;overflow=fill;fontSize=12;fontFamily=Helvetica;html=1;strokeColor=#003366;shadow=1;fillColor=#D4E1F5;fontColor=#003366" parent="1" vertex="1">
          <mxGeometry x="60" y="190" width="320" height="330" as="geometry" />
        </mxCell>
        <mxCell id="24" value="&lt;p style=&quot;margin: 0px ; margin-top: 4px ; text-align: center ; text-decoration: underline&quot;&gt;&lt;b&gt;Модуль тестирования&lt;/b&gt;&lt;/p&gt;&lt;hr&gt;&lt;p style=&quot;margin: 0px ; margin-left: 8px&quot;&gt;Изначально можно рассматривать Crone&lt;/p&gt;&lt;p style=&quot;margin: 0px ; margin-left: 8px&quot;&gt;который будет запускать тесты в&amp;nbsp;&lt;/p&gt;&lt;p style=&quot;margin: 0px ; margin-left: 8px&quot;&gt;соответствии с расписанием,&amp;nbsp;&lt;/p&gt;&lt;p style=&quot;margin: 0px ; margin-left: 8px&quot;&gt;предусмотренном конфигурацией&lt;/p&gt;&lt;p style=&quot;margin: 0px ; margin-left: 8px&quot;&gt;&lt;br&gt;&lt;/p&gt;" style="verticalAlign=top;align=left;overflow=fill;fontSize=12;fontFamily=Helvetica;html=1;strokeColor=#003366;shadow=1;fillColor=#D4E1F5;fontColor=#003366" parent="1" vertex="1">
          <mxGeometry x="500" y="280" width="250" height="100" as="geometry" />
        </mxCell>
        <mxCell id="25" value="&lt;p style=&quot;margin: 0px ; margin-top: 4px ; text-align: center ; text-decoration: underline&quot;&gt;&lt;strong&gt;Rest API&lt;/strong&gt;&lt;/p&gt;&lt;hr&gt;&lt;p style=&quot;margin: 0px ; margin-left: 8px&quot;&gt;&lt;font style=&quot;font-size: 11px&quot;&gt;Routs&lt;/font&gt;&lt;/p&gt;&lt;p style=&quot;margin: 0px ; margin-left: 8px&quot;&gt;&lt;br&gt;&lt;/p&gt;" style="verticalAlign=top;align=left;overflow=fill;fontSize=12;fontFamily=Helvetica;html=1;strokeColor=#003366;shadow=1;fillColor=#D4E1F5;fontColor=#003366" parent="1" vertex="1">
          <mxGeometry x="33" y="40" width="160" height="80" as="geometry" />
        </mxCell>
        <mxCell id="28" value="&lt;p style=&quot;margin: 0px; margin-top: 4px; text-align: center; text-decoration: underline;&quot;&gt;&lt;strong&gt;Document&lt;/strong&gt;&lt;/p&gt;&lt;hr /&gt;&lt;p style=&quot;margin: 0px; margin-left: 8px;&quot;&gt;IdDocument&lt;/p&gt;&lt;p style=&quot;margin: 0px; margin-left: 8px;&quot;&gt;Name&lt;/p&gt;&lt;p style=&quot;margin: 0px; margin-left: 8px;&quot;&gt;Description&lt;/p&gt;&lt;p style=&quot;margin: 0px; margin-left: 8px;&quot;&gt;ValidFrom&lt;/p&gt;&lt;p style=&quot;margin: 0px; margin-left: 8px;&quot;&gt;ValidUntil&lt;/p&gt;&lt;p style=&quot;margin: 0px; margin-left: 8px;&quot;&gt;DocumentContents&lt;/p&gt;&lt;p style=&quot;margin: 0px; margin-left: 8px;&quot;&gt;CreatedAt&lt;/p&gt;&lt;p style=&quot;margin: 0px; margin-left: 8px;&quot;&gt;UpdateAt&lt;/p&gt;&lt;p style=&quot;margin: 0px; margin-left: 8px;&quot;&gt;Enabled&lt;/p&gt;" style="verticalAlign=top;align=left;overflow=fill;fontSize=12;fontFamily=Helvetica;html=1;strokeColor=#003366;shadow=1;fillColor=#D4E1F5;fontColor=#003366" parent="1" vertex="1">
          <mxGeometry x="129.9999999999999" y="881.1600000000003" width="160" height="180" as="geometry" />
        </mxCell>
        <mxCell id="33" value="&lt;p style=&quot;margin: 0px; margin-top: 4px; text-align: center; text-decoration: underline;&quot;&gt;&lt;strong&gt;ProjectCostCenter&lt;/strong&gt;&lt;/p&gt;&lt;hr /&gt;&lt;p style=&quot;margin: 0px; margin-left: 8px;&quot;&gt;IdProjectCostCenter&lt;/p&gt;&lt;p style=&quot;margin: 0px; margin-left: 8px;&quot;&gt;IdProject&lt;/p&gt;&lt;p style=&quot;margin: 0px; margin-left: 8px;&quot;&gt;IdCostCenter&lt;/p&gt;" style="verticalAlign=top;align=left;overflow=fill;fontSize=12;fontFamily=Helvetica;html=1;strokeColor=#003366;shadow=1;fillColor=#D4E1F5;fontColor=#003366" parent="1" vertex="1">
          <mxGeometry x="630" y="914.9999999999995" width="160" height="90" as="geometry" />
        </mxCell>
        <mxCell id="34" value="&lt;p style=&quot;margin: 0px ; margin-top: 4px ; text-align: center ; text-decoration: underline&quot;&gt;&lt;strong&gt;ProjectDocument&lt;/strong&gt;&lt;/p&gt;&lt;hr&gt;&lt;p style=&quot;margin: 0px ; margin-left: 8px&quot;&gt;IdProjectDocument&lt;/p&gt;&lt;p style=&quot;margin: 0px ; margin-left: 8px&quot;&gt;IdProject&lt;/p&gt;&lt;p style=&quot;margin: 0px ; margin-left: 8px&quot;&gt;IdDocument&lt;/p&gt;" style="verticalAlign=top;align=left;overflow=fill;fontSize=12;fontFamily=Helvetica;html=1;strokeColor=#003366;shadow=1;fillColor=#D4E1F5;fontColor=#003366" parent="1" vertex="1">
          <mxGeometry x="440.00000000000006" y="926.1600000000003" width="160" height="90" as="geometry" />
        </mxCell>
        <mxCell id="36" value="" style="endArrow=open;endSize=12;startArrow=diamondThin;startSize=14;startFill=0;edgeStyle=orthogonalEdgeStyle;exitX=0.5;exitY=1;exitDx=0;exitDy=0;" parent="1" source="19" target="20" edge="1">
          <mxGeometry x="-37" y="160" as="geometry">
            <mxPoint x="323" y="140" as="sourcePoint" />
            <mxPoint x="250" y="220" as="targetPoint" />
            <Array as="points">
              <mxPoint x="333" y="160" />
              <mxPoint x="223" y="160" />
            </Array>
          </mxGeometry>
        </mxCell>
        <mxCell id="37" value="0..n" style="resizable=0;align=left;verticalAlign=top;labelBackgroundColor=#ffffff;fontSize=10;strokeColor=#003366;shadow=1;fillColor=#D4E1F5;fontColor=#003366" parent="36" connectable="0" vertex="1">
          <mxGeometry x="-1" relative="1" as="geometry">
            <mxPoint x="437" y="470" as="offset" />
          </mxGeometry>
        </mxCell>
        <mxCell id="66" value="" style="endArrow=open;endSize=12;startArrow=diamondThin;startSize=14;startFill=0;edgeStyle=orthogonalEdgeStyle" parent="1" edge="1">
          <mxGeometry x="469.3599999999999" y="526.1600000000003" as="geometry">
            <mxPoint x="60" y="1120" as="sourcePoint" />
            <mxPoint x="360" y="1120" as="targetPoint" />
          </mxGeometry>
        </mxCell>
        <mxCell id="67" value="0..n" style="resizable=0;align=left;verticalAlign=top;labelBackgroundColor=#ffffff;fontSize=10;strokeColor=#003366;shadow=1;fillColor=#D4E1F5;fontColor=#003366" parent="66" connectable="0" vertex="1">
          <mxGeometry x="-1" relative="1" as="geometry">
            <mxPoint x="10" as="offset" />
          </mxGeometry>
        </mxCell>
        <mxCell id="87" value="" style="endArrow=open;endSize=12;startArrow=diamondThin;startSize=14;startFill=0;edgeStyle=orthogonalEdgeStyle" parent="1" edge="1">
          <mxGeometry x="499.3599999999999" y="540" as="geometry">
            <mxPoint x="120" y="1140" as="sourcePoint" />
            <mxPoint x="370" y="1140" as="targetPoint" />
            <Array as="points">
              <mxPoint x="110" y="1140" />
              <mxPoint x="370" y="1140" />
            </Array>
          </mxGeometry>
        </mxCell>
        <mxCell id="88" value="0..n" style="resizable=0;align=left;verticalAlign=top;labelBackgroundColor=#ffffff;fontSize=10;strokeColor=#003366;shadow=1;fillColor=#D4E1F5;fontColor=#003366" parent="87" connectable="0" vertex="1">
          <mxGeometry x="-1" relative="1" as="geometry">
            <mxPoint x="-40" as="offset" />
          </mxGeometry>
        </mxCell>
        <mxCell id="89" value="1" style="resizable=0;align=right;verticalAlign=top;labelBackgroundColor=#ffffff;fontSize=10;strokeColor=#003366;shadow=1;fillColor=#D4E1F5;fontColor=#003366" parent="87" connectable="0" vertex="1">
          <mxGeometry x="1" relative="1" as="geometry">
            <mxPoint x="19.99999999999981" y="-24.999999999999815" as="offset" />
          </mxGeometry>
        </mxCell>
        <mxCell id="90" value="" style="endArrow=open;endSize=12;startArrow=diamondThin;startSize=14;startFill=0;edgeStyle=orthogonalEdgeStyle;" parent="1" source="25" target="20" edge="1">
          <mxGeometry x="583" y="340" as="geometry">
            <mxPoint x="583" y="340" as="sourcePoint" />
            <mxPoint x="220" y="210" as="targetPoint" />
            <Array as="points">
              <mxPoint x="113" y="160" />
              <mxPoint x="223" y="160" />
            </Array>
          </mxGeometry>
        </mxCell>
        <mxCell id="91" value="0..n" style="resizable=0;align=left;verticalAlign=top;labelBackgroundColor=#ffffff;fontSize=10;strokeColor=#003366;shadow=1;fillColor=#D4E1F5;fontColor=#003366" parent="90" connectable="0" vertex="1">
          <mxGeometry x="-1" relative="1" as="geometry">
            <mxPoint x="657" y="500" as="offset" />
          </mxGeometry>
        </mxCell>
        <mxCell id="92" value="1" style="resizable=0;align=right;verticalAlign=top;labelBackgroundColor=#ffffff;fontSize=10;strokeColor=#003366;shadow=1;fillColor=#D4E1F5;fontColor=#003366" parent="90" connectable="0" vertex="1">
          <mxGeometry x="1" relative="1" as="geometry">
            <mxPoint x="20" y="-24.99999999999981" as="offset" />
          </mxGeometry>
        </mxCell>
        <mxCell id="99" value="" style="endArrow=open;endSize=12;startArrow=diamondThin;startSize=14;startFill=0;edgeStyle=orthogonalEdgeStyle" parent="1" edge="1">
          <mxGeometry x="538.81" y="818.04" as="geometry">
            <mxPoint x="760.5300000000004" y="1090.0000000000007" as="sourcePoint" />
            <mxPoint x="659.45" y="1090.04" as="targetPoint" />
            <Array as="points">
              <mxPoint x="760.45" y="1138.04" />
              <mxPoint x="700.45" y="1138.04" />
              <mxPoint x="700.45" y="1090.04" />
            </Array>
          </mxGeometry>
        </mxCell>
        <mxCell id="100" value="0..n" style="resizable=0;align=left;verticalAlign=top;labelBackgroundColor=#ffffff;fontSize=10;strokeColor=#003366;shadow=1;fillColor=#D4E1F5;fontColor=#003366" parent="99" connectable="0" vertex="1">
          <mxGeometry x="-1" relative="1" as="geometry">
            <mxPoint x="-31.08000000000042" as="offset" />
          </mxGeometry>
        </mxCell>
        <mxCell id="101" value="1" style="resizable=0;align=right;verticalAlign=top;labelBackgroundColor=#ffffff;fontSize=10;strokeColor=#003366;shadow=1;fillColor=#D4E1F5;fontColor=#003366" parent="99" connectable="0" vertex="1">
          <mxGeometry x="1" relative="1" as="geometry">
            <mxPoint x="19.99999999999981" y="1.8947806286936006e-13" as="offset" />
          </mxGeometry>
        </mxCell>
        <mxCell id="107" value="" style="endArrow=none;edgeStyle=orthogonalEdgeStyle;" parent="1" edge="1">
          <mxGeometry x="330" y="1109" as="geometry">
            <mxPoint x="450" y="1130" as="sourcePoint" />
            <mxPoint x="590" y="1130" as="targetPoint" />
            <Array as="points">
              <mxPoint x="520" y="1130" />
              <mxPoint x="520" y="1130" />
            </Array>
          </mxGeometry>
        </mxCell>
        <mxCell id="108" value="parent" style="resizable=0;align=left;verticalAlign=bottom;labelBackgroundColor=#ffffff;fontSize=10;strokeColor=#003366;shadow=1;fillColor=#D4E1F5;fontColor=#003366" parent="107" connectable="0" vertex="1">
          <mxGeometry x="-1" relative="1" as="geometry">
            <mxPoint x="10" y="-10" as="offset" />
          </mxGeometry>
        </mxCell>
        <mxCell id="109" value="child" style="resizable=0;align=right;verticalAlign=bottom;labelBackgroundColor=#ffffff;fontSize=10;strokeColor=#003366;shadow=1;fillColor=#D4E1F5;fontColor=#003366" parent="107" connectable="0" vertex="1">
          <mxGeometry x="1" relative="1" as="geometry">
            <mxPoint x="-10" y="23.83999999999977" as="offset" />
          </mxGeometry>
        </mxCell>
        <mxCell id="113" value="" style="endArrow=block;endFill=1;edgeStyle=orthogonalEdgeStyle;align=left;verticalAlign=top;rounded=0" parent="1" edge="1">
          <mxGeometry x="-1" relative="1" as="geometry">
            <mxPoint x="33" y="1141.16" as="sourcePoint" />
            <mxPoint x="33" y="1061.16" as="targetPoint" />
            <Array as="points">
              <mxPoint x="33" y="1101.16" />
              <mxPoint x="33" y="1101.16" />
            </Array>
          </mxGeometry>
        </mxCell>
        <mxCell id="boj_urTsUNxEGo1IXaUz-113" value="&lt;p style=&quot;margin: 0px ; margin-top: 4px ; text-align: center ; text-decoration: underline&quot;&gt;&lt;b&gt;Модуль инициализации&lt;/b&gt;&lt;/p&gt;&lt;hr&gt;&lt;p style=&quot;margin: 0px 0px 0px 8px ; font-size: 11px&quot;&gt;&lt;font style=&quot;font-size: 11px&quot;&gt;Python/shell скрипт, проводящий&amp;nbsp;&lt;/font&gt;&lt;/p&gt;&lt;p style=&quot;margin: 0px 0px 0px 8px ; font-size: 11px&quot;&gt;&lt;font style=&quot;font-size: 11px&quot;&gt;первичную инициализацию&lt;/font&gt;&lt;/p&gt;&lt;p style=&quot;margin: 0px ; margin-left: 8px&quot;&gt;&lt;br&gt;&lt;/p&gt;" style="verticalAlign=top;align=left;overflow=fill;fontSize=12;fontFamily=Helvetica;html=1;strokeColor=#003366;shadow=1;fillColor=#D4E1F5;fontColor=#003366" vertex="1" parent="1">
          <mxGeometry x="500" y="120" width="250" height="70" as="geometry" />
        </mxCell>
        <mxCell id="boj_urTsUNxEGo1IXaUz-114" value="&lt;p style=&quot;margin: 0px ; margin-top: 4px ; text-align: center ; text-decoration: underline&quot;&gt;&lt;b&gt;Watchdog&lt;/b&gt;&lt;/p&gt;&lt;hr style=&quot;font-size: 11px&quot;&gt;&lt;p style=&quot;margin: 0px 0px 0px 8px ; font-size: 11px&quot;&gt;Поскольку выполнение тестов завязано на&amp;nbsp;&lt;/p&gt;&lt;p style=&quot;margin: 0px 0px 0px 8px ; font-size: 11px&quot;&gt;состояние системы/сети, этот модуль&amp;nbsp;&lt;/p&gt;&lt;p style=&quot;margin: 0px 0px 0px 8px ; font-size: 11px&quot;&gt;выполняет функцию администратора&amp;nbsp;&lt;/p&gt;&lt;p style=&quot;margin: 0px 0px 0px 8px ; font-size: 11px&quot;&gt;системы. Останавливает тесты в случае&amp;nbsp;&lt;/p&gt;&lt;p style=&quot;margin: 0px 0px 0px 8px ; font-size: 11px&quot;&gt;недоступности каналов и отправляет&amp;nbsp;&lt;/p&gt;&lt;p style=&quot;margin: 0px 0px 0px 8px ; font-size: 11px&quot;&gt;уведомлениесистеме мониторинга. &amp;nbsp;&lt;/p&gt;" style="verticalAlign=top;align=left;overflow=fill;fontSize=12;fontFamily=Helvetica;html=1;strokeColor=#003366;shadow=1;fillColor=#D4E1F5;fontColor=#003366" vertex="1" parent="1">
          <mxGeometry x="500" y="410" width="250" height="120" as="geometry" />
        </mxCell>
        <mxCell id="gWvd9H-gTdr3ixBmeh7M-113" value="&lt;p style=&quot;margin: 4px 0px 0px ; text-align: center ; font-size: 11px&quot;&gt;&lt;b style=&quot;text-decoration: underline&quot;&gt;&lt;font style=&quot;font-size: 11px&quot;&gt;Модули тестов&lt;/font&gt;&lt;/b&gt;&lt;/p&gt;&lt;hr style=&quot;font-size: 11px&quot;&gt;&lt;p style=&quot;margin: 0px 0px 0px 8px ; font-size: 11px&quot;&gt;&lt;font style=&quot;font-size: 11px&quot; color=&quot;#000066&quot;&gt;Каждый тест на данном этапе рассматривает&lt;/font&gt;&lt;/p&gt;&lt;p style=&quot;margin: 0px 0px 0px 8px ; font-size: 11px&quot;&gt;&lt;font style=&quot;font-size: 11px&quot; color=&quot;#000066&quot;&gt;как либо самостоятельный python модуль,&amp;nbsp;&lt;/font&gt;&lt;/p&gt;&lt;p style=&quot;margin: 0px 0px 0px 8px ; font-size: 11px&quot;&gt;&lt;font style=&quot;font-size: 11px&quot; color=&quot;#000066&quot;&gt;либо&amp;nbsp;python модуль,&amp;nbsp;запускающий внешнюю&amp;nbsp;&lt;/font&gt;&lt;/p&gt;&lt;p style=&quot;margin: 0px 0px 0px 8px ; font-size: 11px&quot;&gt;&lt;font style=&quot;font-size: 11px&quot; color=&quot;#000066&quot;&gt;программу (обертка).&amp;nbsp;&lt;/font&gt;&lt;/p&gt;&lt;p style=&quot;margin: 0px 0px 0px 8px ; font-size: 11px&quot;&gt;&lt;font style=&quot;font-size: 11px&quot; color=&quot;#000066&quot;&gt;Задача обертки - считать из базы параметры&amp;nbsp;&lt;/font&gt;&lt;/p&gt;&lt;p style=&quot;margin: 0px 0px 0px 8px ; font-size: 11px&quot;&gt;&lt;font style=&quot;font-size: 11px&quot; color=&quot;#000066&quot;&gt;запуска теста,&amp;nbsp;запустить тест&amp;nbsp;&lt;/font&gt;&lt;/p&gt;&lt;p style=&quot;margin: 0px 0px 0px 8px ; font-size: 11px&quot;&gt;&lt;font style=&quot;font-size: 11px&quot; color=&quot;#000066&quot;&gt;интерпретировать его результаты и записать&amp;nbsp;&lt;/font&gt;&lt;/p&gt;&lt;p style=&quot;margin: 0px 0px 0px 8px ; font-size: 11px&quot;&gt;&lt;font style=&quot;font-size: 11px&quot; color=&quot;#000066&quot;&gt;их в базу.&lt;/font&gt;&lt;br&gt;&lt;/p&gt;" style="verticalAlign=top;align=left;overflow=fill;fontSize=12;fontFamily=Helvetica;html=1;strokeColor=#003366;shadow=1;fillColor=#D4E1F5;fontColor=#003366" vertex="1" parent="1">
          <mxGeometry x="500" y="560" width="250" height="140" as="geometry" />
        </mxCell>
      </root>
    </mxGraphModel>
  </diagram>
  <diagram id="8Fx-LfwOrfA0uTg-qdeL" name="Tests">
    <mxGraphModel dx="1237" dy="762" grid="1" gridSize="10" guides="1" tooltips="1" connect="1" arrows="1" fold="1" page="1" pageScale="1" pageWidth="827" pageHeight="1169" math="0" shadow="0">
      <root>
        <mxCell id="dWV13V8ptB_h5DxTq1_r-0" />
        <mxCell id="dWV13V8ptB_h5DxTq1_r-1" parent="dWV13V8ptB_h5DxTq1_r-0" />
        <mxCell id="EmR-D7juMjkWWR4csxBq-0" value="&lt;p style=&quot;margin: 0px ; margin-top: 4px ; text-align: center ; text-decoration: underline&quot;&gt;&lt;b&gt;Тест доступности&lt;/b&gt;&lt;/p&gt;&lt;hr style=&quot;font-size: 11px&quot;&gt;&lt;p style=&quot;margin: 0px 0px 0px 8px ; font-size: 11px&quot;&gt;&lt;font style=&quot;font-size: 11px&quot;&gt;Python ping&amp;nbsp;&lt;/font&gt;&lt;/p&gt;&lt;p style=&quot;margin: 0px 0px 0px 8px ; font-size: 11px&quot;&gt;&lt;u&gt;&lt;b&gt;Измеряемые значения:&lt;/b&gt;&lt;/u&gt;&lt;/p&gt;&lt;p style=&quot;margin: 0px 0px 0px 8px ; font-size: 11px&quot;&gt;доступность&amp;nbsp;&lt;/p&gt;&lt;p style=&quot;margin: 0px 0px 0px 8px ; font-size: 11px&quot;&gt;&lt;font style=&quot;font-size: 11px&quot;&gt;задержка&lt;/font&gt;&lt;/p&gt;&lt;p style=&quot;margin: 0px 0px 0px 8px ; font-size: 11px&quot;&gt;&lt;font style=&quot;font-size: 11px&quot;&gt;&lt;b style=&quot;text-decoration: underline&quot;&gt;Параметры &lt;/b&gt;&amp;nbsp;IP адрес&lt;/font&gt;&lt;/p&gt;" style="verticalAlign=top;align=left;overflow=fill;fontSize=12;fontFamily=Helvetica;html=1;strokeColor=#003366;shadow=1;fillColor=#D4E1F5;fontColor=#003366" vertex="1" parent="dWV13V8ptB_h5DxTq1_r-1">
          <mxGeometry x="80" y="40" width="250" height="100" as="geometry" />
        </mxCell>
        <mxCell id="q2U4f_Sw3mpLdYQ4OwwL-0" value="&lt;p style=&quot;margin: 4px 0px 0px ; text-align: center&quot;&gt;&lt;b style=&quot;text-decoration: underline&quot;&gt;Тест&amp;nbsp;&lt;/b&gt;&lt;b&gt;&lt;u&gt;perf&lt;/u&gt;&lt;/b&gt;&lt;/p&gt;&lt;hr style=&quot;font-size: 11px&quot;&gt;&lt;p style=&quot;margin: 0px 0px 0px 8px ; font-size: 11px&quot;&gt;&lt;font style=&quot;font-size: 11px&quot;&gt;Python &quot;обертка&quot;&amp;nbsp;&lt;/font&gt;&lt;/p&gt;&lt;p style=&quot;margin: 0px 0px 0px 8px ; font-size: 11px&quot;&gt;&lt;u&gt;&lt;b&gt;Измеряемые значения&lt;/b&gt;&lt;/u&gt;&lt;/p&gt;&lt;p style=&quot;margin: 0px 0px 0px 8px ; font-size: 11px&quot;&gt;&lt;b style=&quot;text-decoration: underline&quot;&gt;&lt;br&gt;&lt;/b&gt;&lt;/p&gt;&lt;p style=&quot;margin: 0px 0px 0px 8px ; font-size: 11px&quot;&gt;&lt;b style=&quot;text-decoration: underline&quot;&gt;Параметры &lt;/b&gt;&amp;nbsp;&lt;/p&gt;&lt;p style=&quot;margin: 0px 0px 0px 8px ; font-size: 11px&quot;&gt;IP адрес&lt;br&gt;&lt;/p&gt;" style="verticalAlign=top;align=left;overflow=fill;fontSize=12;fontFamily=Helvetica;html=1;strokeColor=#003366;shadow=1;fillColor=#D4E1F5;fontColor=#003366" vertex="1" parent="dWV13V8ptB_h5DxTq1_r-1">
          <mxGeometry x="80" y="190" width="250" height="110" as="geometry" />
        </mxCell>
        <mxCell id="MJSlm0Sg0He1QIlMMzmC-0" value="&lt;p style=&quot;margin: 0px ; margin-top: 4px ; text-align: center ; text-decoration: underline&quot;&gt;&lt;b&gt;Тест bwping&lt;/b&gt;&lt;/p&gt;&lt;hr style=&quot;font-size: 11px&quot;&gt;&lt;p style=&quot;margin: 0px 0px 0px 8px ; font-size: 11px&quot;&gt;Python &quot;обертка&quot;&amp;nbsp;&lt;/p&gt;&lt;p style=&quot;margin: 0px 0px 0px 8px ; font-size: 11px&quot;&gt;&lt;u&gt;&lt;b&gt;Измеряемые значения&lt;/b&gt;&lt;/u&gt;&lt;/p&gt;&lt;p style=&quot;margin: 0px 0px 0px 8px ; font-size: 11px&quot;&gt;ширина канала&lt;/p&gt;&lt;p style=&quot;margin: 0px 0px 0px 8px ; font-size: 11px&quot;&gt;&lt;u&gt;&lt;b&gt;&lt;br&gt;&lt;/b&gt;&lt;/u&gt;&lt;/p&gt;&lt;p style=&quot;margin: 0px 0px 0px 8px ; font-size: 11px&quot;&gt;&lt;font style=&quot;font-size: 11px&quot;&gt;&lt;b style=&quot;text-decoration: underline&quot;&gt;Параметры &lt;/b&gt;&amp;nbsp;&lt;/font&gt;&lt;/p&gt;&lt;p style=&quot;margin: 0px 0px 0px 8px ; font-size: 11px&quot;&gt;&lt;font style=&quot;font-size: 11px&quot;&gt;IP адрес&lt;/font&gt;&lt;/p&gt;" style="verticalAlign=top;align=left;overflow=fill;fontSize=12;fontFamily=Helvetica;html=1;strokeColor=#003366;shadow=1;fillColor=#D4E1F5;fontColor=#003366" vertex="1" parent="dWV13V8ptB_h5DxTq1_r-1">
          <mxGeometry x="80" y="360" width="250" height="130" as="geometry" />
        </mxCell>
      </root>
    </mxGraphModel>
  </diagram>
  <diagram id="GrHqj335WHxrijfu56YQ" name="Descr">
    <mxGraphModel dx="2064" dy="762" grid="1" gridSize="10" guides="1" tooltips="1" connect="1" arrows="1" fold="1" page="1" pageScale="1" pageWidth="827" pageHeight="1169" math="0" shadow="0">
      <root>
        <mxCell id="sChZahmV2xaIzBipaMrD-0" />
        <mxCell id="sChZahmV2xaIzBipaMrD-1" parent="sChZahmV2xaIzBipaMrD-0" />
        <mxCell id="lYfP56UWIPLWB0mnNXTd-0" value="Каждый тест на данном этапе рассматривает как либо самостоятельный python модуль, либо&amp;nbsp;python модуль, &lt;br&gt;запускающий внешнюю программу (обертку). Задача обертки считать из базы параметры запуска теста, &lt;br&gt;запустить тест интерпретировать его результаты и записать их в базу.&lt;br&gt;Так как выполнение тестов связано между собой, Crone - является временным решением или вариант: у нас &lt;br&gt;есть некий demon, наблюдающий за состоянием тестов, который может приостановить их в случае аварии &amp;nbsp;&amp;nbsp;" style="text;html=1;align=left;verticalAlign=middle;resizable=0;points=[];autosize=1;" vertex="1" parent="sChZahmV2xaIzBipaMrD-1">
          <mxGeometry x="-740" y="15" width="640" height="80" as="geometry" />
        </mxCell>
      </root>
    </mxGraphModel>
  </diagram>
</mxfile>
